<svg width="250" height="60" viewBox="0 0 1624 182" fill="none" xmlns="http://www.w3.org/2000/svg">
<path fill-rule="evenodd" clip-rule="evenodd" d="M1465.33 1.53399C1465.33 2.29199 1465.78 2.63699 1466.32 2.30199C1466.9 1.94099 1466.99 2.20899 1466.53 2.95599C1466.03 3.75999 1464.54 4.02499 1462.44 3.68299C1458.59 3.05899 1455.48 5.44099 1458.06 7.03499C1460.74 8.69399 1457.62 9.82999 1449.5 10.153C1441.91 10.455 1441.49 10.36 1441.39 8.32299C1441.11 2.87099 1437.78 1.13899 1435 4.99999C1433.26 7.41199 1432.35 7.49399 1430.28 5.42599C1429.1 4.24099 1428.53 4.15099 1427.96 5.06399C1427.42 5.94399 1426.57 5.67299 1424.86 4.06899C1421.89 1.29299 1417.39 1.91399 1414.46 5.50199C1412.09 8.40699 1410.16 8.75899 1410.36 6.24999C1410.55 3.85099 1403.75 3.28199 1400.48 5.42399C1398.11 6.97399 1395 6.63899 1395 4.83399C1395 4.30999 1394.58 4.14099 1394.07 4.45699C1393.56 4.77399 1392.88 4.61799 1392.57 4.10999C1391.7 2.71199 1322.86 3.47099 1320.17 4.90899C1318.46 5.82299 1317.36 5.72199 1314.84 4.41899C1312.41 3.16099 1310.48 2.95399 1306.58 3.53499C1303.79 3.95199 1296.1 4.20499 1289.5 4.09799C1282.9 3.98999 1274.68 4.30199 1271.22 4.78899C1267.77 5.27699 1263.27 5.39199 1261.22 5.04399C1259.18 4.69599 1253.9 4.98899 1249.5 5.69499C1242.85 6.76299 1183.78 7.97899 1099 8.79399C1098.18 8.80199 1089.4 8.78099 1079.5 8.74799C1069.6 8.71499 1052.05 8.76199 1040.5 8.85399C1028.95 8.94499 998.575 8.93199 973 8.82499C947.425 8.71799 924.7 8.66499 922.5 8.70699C920.3 8.74799 889.475 8.74099 854 8.69099C818.525 8.64099 773.3 8.60599 753.5 8.61299C733.7 8.62099 715.025 8.62699 712 8.62799C708.975 8.62799 702.45 8.70799 697.5 8.80499C686.37 9.02399 534.356 9.39299 509 9.26299C498.825 9.21099 487.575 9.18599 484 9.20699C480.425 9.22799 476.15 9.13799 474.5 9.00699C467.554 8.45699 416.342 9.66999 415.139 10.414C414.417 10.86 413.391 10.791 412.861 10.261C411.752 9.15199 121.435 9.61299 119.635 10.726C119.022 11.104 110.811 11.717 101.387 12.086C84.351 12.755 77.754 13.968 83.42 15.391C84.89 15.759 86.591 15.753 87.2 15.376C87.82 14.993 88.03 15.142 87.677 15.714C87.27 16.372 89.805 16.812 94.772 16.947C99.022 17.062 104.525 17.406 107 17.712C113.863 18.561 121.972 18.839 153.112 19.294C168.849 19.524 182.295 20.064 182.992 20.495C183.688 20.925 192.863 21.159 203.379 21.014C227.306 20.684 232.255 20.855 233.449 22.049C233.972 22.572 235.547 23.007 236.95 23.015C238.352 23.024 240.175 23.467 241 24C242.297 24.838 242.275 24.971 240.833 24.985C239.917 24.993 238.978 25.563 238.747 26.25C238.419 27.227 237.747 27.191 235.672 26.086C233.738 25.055 232.404 24.944 230.759 25.678C229.516 26.231 227.273 26.347 225.774 25.935C224.274 25.523 217.974 25.523 211.774 25.936C205.573 26.349 199.044 26.288 197.265 25.8C195.33 25.27 193.32 25.288 192.265 25.844C191.294 26.356 182.249 26.849 172.165 26.941C153.254 27.112 141.099 28.088 133.969 30.008C130.967 30.817 128.963 30.813 126.484 29.995C124.021 29.182 122.539 29.176 121.049 29.974C119.591 30.754 118.426 30.763 117.009 30.005C115.514 29.205 114.281 29.32 112.059 30.47C110.281 31.389 106.47 32 102.518 32C98.898 32 94.32 32.675 92.346 33.5C90.371 34.325 85.765 35 82.109 35C76.382 35 42.913 39.979 37.692 41.608C36.535 41.969 35.994 42.942 36.192 44.309C36.729 48.034 44.548 50.117 59.5 50.517C72.73 50.871 90.353 52.009 115.5 54.135C123.2 54.786 132.736 55.507 136.691 55.736C141.253 56.001 144.315 56.674 145.064 57.577C146.048 58.763 145.599 59.029 142.372 59.174C132.222 59.63 128.895 59.889 121 60.835C116.325 61.396 107.325 62.365 101 62.989C94.675 63.612 82.975 64.996 75 66.063C67.025 67.13 59.375 68.003 58 68.004C56.625 68.004 51.47 70.029 46.545 72.502C37.904 76.842 32.856 78.551 38 75.395C39.375 74.552 39.768 74.083 38.873 74.352C37.978 74.622 35.317 74.409 32.958 73.879C29.851 73.181 28.471 73.238 27.947 74.086C27.549 74.73 26.723 74.947 26.112 74.569C25.5 74.191 25 74.385 25 75C25 75.615 24.48 75.797 23.845 75.405C23.158 74.98 22.961 75.128 23.359 75.772C23.811 76.502 25.074 76.552 27.257 75.926C31.548 74.696 35.277 74.742 34.49 76.016C34.144 76.575 33.423 76.762 32.887 76.43C32.351 76.099 31.37 76.256 30.706 76.779C30.043 77.303 26.575 77.634 23 77.516C17.217 77.325 16.538 77.092 16.845 75.401C17.035 74.355 16.889 73.796 16.52 74.158C16.151 74.52 15.759 75.42 15.647 76.158C15.535 76.896 15.11 78.034 14.702 78.687C14.18 79.522 14.708 79.739 16.48 79.418C17.898 79.161 19 79.432 19 80.039C19 80.633 19.498 80.81 20.107 80.434C20.878 79.957 20.803 79.49 19.857 78.89C18.8 78.221 18.887 78.027 20.25 78.015C21.213 78.007 21.986 78.338 21.968 78.75C21.922 79.832 19.331 83.1 18.348 83.317C17.889 83.417 17.653 84.108 17.824 84.85C17.994 85.593 17.685 85.923 17.136 85.584C16.587 85.245 15.877 85.391 15.557 85.908C15.237 86.425 15.769 87.055 16.738 87.308C18.403 87.743 18.403 87.774 16.75 87.884C15.787 87.948 15 88.477 15 89.059C15 89.641 15.563 89.78 16.25 89.367C17.031 88.898 16.962 89.279 16.064 90.384C14.898 91.82 14.873 92.304 15.932 92.958C16.945 93.584 16.768 94.232 15.143 95.857C12.053 98.947 11.55 102.504 13.308 108.84C14.172 111.953 15.606 117.425 16.494 121C17.383 124.575 18.597 128.755 19.193 130.29C20.869 134.608 35.17 145.487 42.634 148.122C46.135 149.359 49 150.731 49 151.173C49 151.615 50.792 152.263 52.981 152.613C55.171 152.963 57.476 153.868 58.104 154.625C59.04 155.753 58.46 156.028 54.872 156.158C52.468 156.244 49.825 156.251 49 156.173C43.574 155.659 26.665 159.998 28.182 161.515C28.384 161.717 30.788 162.153 33.525 162.484C41.018 163.389 46.394 165.688 49.818 169.449C54.249 174.319 60.771 175.603 74.185 174.246C83.184 173.336 87.243 173.521 106 175.693C123.304 177.697 133.355 178.24 157.5 178.473C174 178.632 193.35 179.3 200.5 179.957C208.58 180.699 215.581 180.828 219 180.298C222.025 179.83 227.2 179.755 230.5 180.133C233.8 180.511 457.675 181.096 728 181.433C1276.92 182.117 1333.92 182.121 1342.5 181.478C1355.89 180.474 1400.97 178.878 1441.5 177.973C1486.61 176.965 1516.89 174.599 1518.53 171.955C1519.29 170.72 1517.91 168 1516.52 168C1515.82 168 1514.72 167.363 1514.07 166.585C1513.09 165.398 1513.91 165.088 1519.2 164.657C1522.66 164.375 1536.08 163.199 1549 162.043C1561.93 160.887 1573.71 159.955 1575.19 159.971C1578.5 160.007 1579.61 158.452 1577.84 156.282C1576.75 154.952 1577.02 154.988 1579.3 156.474C1581.58 157.959 1582.33 158.057 1583.3 157.001C1584.26 155.97 1584.15 155.829 1582.78 156.309C1580.81 157.001 1579.34 155.429 1581.24 154.673C1581.94 154.4 1581 154.334 1579.16 154.527C1577.32 154.72 1574.62 154.408 1573.16 153.833C1568.85 152.137 1530.34 149.073 1512.81 149.031C1504.93 149.012 1499.87 148.596 1499.46 147.933C1499.1 147.345 1499.74 146.619 1500.9 146.316C1505.11 145.215 1502.87 143.336 1495.25 141.569C1490.99 140.581 1485.34 138.859 1482.7 137.742C1478.54 135.983 1477.38 135.87 1473.95 136.896C1471.78 137.547 1470 138.512 1470 139.04C1470 140.285 1467.3 140.288 1466.53 139.044C1465.17 136.847 1471.37 134.501 1478.96 134.342C1483.11 134.255 1486.84 134.142 1487.25 134.092C1487.66 134.041 1488 132.618 1488 130.929C1488 129.239 1488.68 127.182 1489.5 126.357C1491.7 124.158 1491.34 123.213 1488.5 123.755C1486.94 124.054 1486 123.776 1486 123.01C1486 122.337 1486.65 122.034 1487.44 122.337C1488.23 122.64 1489.04 122.383 1489.24 121.767C1489.84 119.991 1492 121.9 1492 124.198C1492 126.16 1492.35 126.237 1498.25 125.549C1501.69 125.149 1505.7 124.749 1507.17 124.66C1508.63 124.572 1510.17 124.166 1510.58 123.759C1510.98 123.351 1511.92 123.519 1512.66 124.131C1513.5 124.833 1514 124.869 1514 124.228C1514 123.029 1515.24 122.891 1528.78 122.582C1534.43 122.452 1539.48 121.924 1539.99 121.408C1540.51 120.892 1545.67 120.561 1551.47 120.671C1557.26 120.782 1562 120.474 1562 119.986C1562 119.499 1564.59 118.965 1567.75 118.8C1572 118.578 1573.5 118.117 1573.5 117.036C1573.5 115.923 1571.82 115.488 1566.5 115.223C1562.65 115.031 1558.12 114.511 1556.43 114.067C1554.74 113.623 1551.04 113.482 1548.22 113.753C1544.79 114.083 1541.73 113.709 1539.04 112.632C1536.82 111.743 1535 111.307 1535 111.663C1535 112.019 1534.16 111.546 1533.12 110.612C1532.09 109.678 1529.51 108.637 1527.37 108.297C1525.24 107.957 1521.7 106.539 1519.5 105.145L1515.5 102.612L1518.89 101.621C1521.77 100.781 1522.53 100.925 1523.89 102.565C1526.19 105.326 1535.71 105.494 1536.57 102.789C1538.09 98.004 1546 94.685 1546 98.833C1546 101.193 1546.84 101.998 1548.6 101.324C1550.19 100.713 1550.46 97.873 1549.07 96.45C1548.49 95.861 1548.65 94.802 1549.49 93.661C1550.66 92.087 1551.83 91.899 1557.68 92.352C1561.43 92.643 1565.18 92.856 1566 92.826C1566.83 92.795 1570.65 92.71 1574.5 92.635C1581.98 92.491 1586 91.509 1586 89.823C1586 88.804 1589.32 89.064 1595.29 90.552C1597.28 91.05 1598.63 90.745 1600.04 89.468C1601.87 87.811 1602.13 87.803 1603.83 89.345C1607.11 92.316 1609.9 90.956 1607.44 87.586C1606.27 85.985 1604.17 85.585 1593.79 84.988C1585.89 84.533 1580.94 84.647 1579.88 85.309C1578.74 86.017 1575.64 85.973 1569.87 85.167C1558.87 83.629 1542.76 83.637 1541.22 85.18C1540.34 86.063 1539.47 86.078 1537.77 85.239C1534.86 83.803 1525.86 82 1521.61 82C1518.12 82 1515 79.511 1515 76.73C1515 75.844 1514.55 74.84 1514 74.5C1512.33 73.469 1512.88 70.422 1515.08 68.424C1517.23 66.481 1522.59 66.287 1524.45 68.084C1524.97 68.588 1526.21 69 1527.2 69C1528.19 69 1529 69.477 1529 70.059C1529 70.641 1529.56 70.78 1530.25 70.367C1531.08 69.869 1531.03 70.195 1530.11 71.331C1528.89 72.83 1528.92 72.967 1530.36 72.416C1531.26 72.069 1532 71.309 1532 70.726C1532 70.144 1532.29 69.956 1532.64 70.309C1533 70.663 1532.72 71.638 1532.02 72.476C1531.23 73.43 1531.15 74 1531.82 74C1532.41 74 1533.52 73.103 1534.28 72.006C1535.05 70.91 1535.86 70.197 1536.09 70.422C1536.32 70.647 1536.49 69.07 1536.48 66.917C1536.46 64.023 1535.87 62.597 1534.23 61.445C1533 60.588 1532 58.9 1532 57.693C1532 55.693 1532.56 55.477 1538.37 55.233C1544.58 54.973 1544.77 55.041 1545.96 57.911C1546.63 59.53 1548.05 61.642 1549.12 62.604C1550.61 63.954 1550.76 64.546 1549.77 65.2C1548.98 65.729 1549.63 65.913 1551.5 65.689C1553.15 65.493 1554.46 64.807 1554.4 64.166C1554.16 61.371 1553.95 60.913 1553.14 61.413C1552.16 62.02 1552.45 57.693 1553.51 55.982C1554.82 53.861 1558.76 58.884 1559.46 63.579C1560.35 69.532 1562.66 69.469 1563.56 63.467C1563.93 60.974 1563.96 57.547 1563.62 55.851C1563.05 53.003 1563.18 52.824 1565.25 53.502C1566.49 53.906 1569.02 54.179 1570.89 54.108C1572.75 54.038 1574.85 54.456 1575.55 55.039C1576.4 55.745 1577.03 55.761 1577.45 55.087C1577.86 54.414 1578.94 54.406 1580.67 55.064C1582.1 55.607 1584.07 55.796 1585.05 55.485C1586.03 55.173 1587.12 55.387 1587.48 55.959C1587.83 56.532 1589.22 57 1590.56 57C1592.35 57 1593 56.456 1593 54.96C1593 53.838 1594.87 51.191 1597.16 49.078C1601.31 45.248 1601.33 45.241 1604.91 46.734C1607.76 47.925 1609.43 48.014 1613.09 47.169C1615.62 46.584 1618.65 46.358 1619.83 46.665C1622.31 47.314 1624 44.045 1624 38.59C1624 33.553 1621.37 31.895 1611.79 30.889C1607.23 30.411 1601.11 29.628 1598.19 29.15C1592.19 28.166 1584.46 29.27 1582.05 31.457C1580.82 32.571 1576.26 33.022 1562.47 33.394C1552.59 33.66 1534.38 34.348 1522 34.921C1509.63 35.494 1489.51 36.198 1477.3 36.486C1465.1 36.773 1453.93 37.455 1452.5 38.001C1450.92 38.6 1450.12 38.618 1450.47 38.047C1451.19 36.879 1447.86 35 1445.07 35C1442.81 35 1442.25 36.565 1444.25 37.28C1444.94 37.525 1445.14 38.112 1444.7 38.584C1443.97 39.357 1442.54 37.927 1441.73 35.629C1441.56 35.151 1439.41 34.638 1436.96 34.491C1432.53 34.226 1430 35.255 1430 37.322C1430 38.024 1430.42 37.982 1431.2 37.2C1431.86 36.54 1432.79 36 1433.27 36C1433.75 36 1433.45 36.698 1432.59 37.55C1431.51 38.635 1428.76 39.161 1423.44 39.3C1417.21 39.464 1415.61 39.186 1414.56 37.75C1412.88 35.452 1411.55 35.54 1409.87 38.059C1408.63 39.93 1408.22 39.999 1405.39 38.807C1402.85 37.74 1402.41 37.116 1403.02 35.463C1403.44 34.345 1404.39 32.945 1405.14 32.351C1407.05 30.839 1418 29.854 1418 31.195C1418 31.899 1418.44 31.88 1419.34 31.137C1420.09 30.514 1422.61 30.234 1425.09 30.498C1441.95 32.292 1442.71 32.293 1446.13 30.513C1448.73 29.158 1453.51 28.559 1467 27.897C1476.63 27.425 1488.85 26.815 1494.17 26.542C1499.49 26.268 1505.79 25.312 1508.17 24.418C1511.07 23.329 1516.53 22.692 1524.69 22.491C1531.4 22.326 1537.37 21.892 1537.96 21.526C1538.55 21.16 1542.51 20.462 1546.77 19.974C1569.71 17.345 1575.92 15.829 1575.99 12.844C1576.01 11.579 1566.35 11.006 1549 11.244C1539.38 11.377 1529.41 11.106 1526.85 10.644C1522.79 9.90999 1521.93 10.074 1520.09 11.915C1518.15 13.847 1517.78 13.9 1515.69 12.534C1513.61 11.172 1513.26 11.215 1511.72 13.02C1509.28 15.867 1498.01 15.55 1497.99 12.633C1497.99 11.848 1493.71 11.471 1484.08 11.404C1472.85 11.327 1469.86 11.005 1468.59 9.73499C1467.42 8.55699 1467.33 8.03399 1468.26 7.65899C1469.24 7.26299 1469.24 7.14099 1468.25 7.07899C1467.56 7.03599 1467 6.53899 1467 5.97499C1467 4.13099 1472.39 2.67399 1478.25 2.93199C1481.67 3.08199 1484 2.76899 1484 2.16199C1484 1.59899 1484.79 0.93899 1485.75 0.69499C1486.71 0.45199 1485.93 0.47899 1484 0.75599C1480.08 1.31999 1477.77 1.29799 1470.42 0.622991C1466.54 0.266991 1465.33 0.48299 1465.33 1.53399ZM1491.5 1.04299C1493.08 1.68699 1492.72 1.87399 1489.81 1.92999C1485.02 2.02099 1484.41 3.19099 1487.85 5.73399C1489.94 7.27699 1491.07 7.53899 1492.42 6.78699C1493.4 6.23799 1496.84 5.82499 1500.06 5.86999C1504.84 5.93799 1505.81 5.67999 1505.35 4.47599C1505.04 3.66399 1504.05 2.99299 1503.14 2.98499C1501.72 2.97099 1501.7 2.84099 1503 1.99999C1504.68 0.91299 1504.89 0.95599 1496 0.53499C1491.96 0.34299 1490.26 0.535989 1491.5 1.04299ZM1449.34 1.67899C1449.77 2.40699 1449.2 2.97999 1447.84 3.17899C1443.71 3.78699 1444.55 5.99999 1448.92 5.99999C1453.53 5.99999 1453.97 5.16199 1450.83 2.40499C1449.63 1.35699 1448.97 1.02999 1449.34 1.67899ZM1520.54 2.24999C1520.84 3.03399 1520.05 3.55599 1518.41 3.64999C1516.97 3.73299 1515.28 4.32399 1514.65 4.96299C1513.78 5.84599 1514.16 5.87699 1516.24 5.09099C1519.16 3.98899 1522.36 4.61299 1521.44 6.10499C1521.13 6.59699 1522.03 6.99999 1523.44 6.99999C1524.85 6.99999 1526 6.47499 1526 5.83299C1526 5.19199 1526.3 4.96799 1526.67 5.33599C1527.41 6.07599 1531 3.18299 1531 1.84499C1531 1.37999 1528.54 0.99999 1525.53 0.99999C1521.57 0.99999 1520.2 1.34399 1520.54 2.24999ZM1491.76 3.68699C1490.81 3.93699 1489.01 3.94599 1487.76 3.70699C1486.52 3.46799 1487.3 3.26299 1489.5 3.25199C1491.7 3.24099 1492.72 3.43699 1491.76 3.68699ZM1461 4.99999C1461 5.54999 1460.8 5.99999 1460.56 5.99999C1460.32 5.99999 1459.84 5.54999 1459.5 4.99999C1459.16 4.44999 1459.36 3.99999 1459.94 3.99999C1460.52 3.99999 1461 4.44999 1461 4.99999ZM276.738 22.995L281.5 24.806L271.299 24.351C265.489 24.092 259.35 24.367 257.036 24.99C254.529 25.665 252.352 25.737 251.35 25.176C250.118 24.486 250.81 24.106 254.229 23.593C256.704 23.222 259.578 22.26 260.615 21.455C262.91 19.674 269.715 20.324 276.738 22.995ZM303.559 21.429C305.159 22.606 305.237 22.943 304 23.344C299.858 24.687 293.049 24.781 289.455 23.545L285.5 22.185L289 21.607C292.393 21.046 296.861 20.457 300.059 20.15C300.916 20.067 302.491 20.643 303.559 21.429ZM513.25 22.193C515.313 22.17 517.563 22.109 518.25 22.057C521.068 21.844 530.648 22.721 532.666 23.377C533.876 23.771 535.116 23.622 535.475 23.041C535.829 22.468 536.793 22 537.618 22C538.443 22 538.84 22.45 538.5 23C537.725 24.255 537.99 24.248 541.798 22.921C543.807 22.22 545.493 22.177 546.601 22.797C548.128 23.651 548.036 23.93 545.723 25.446C542.077 27.835 517.512 28.659 512.49 26.56C510.019 25.528 508.152 25.383 505.844 26.045C504.079 26.551 500.804 26.665 498.567 26.299C494.962 25.708 492.009 25.584 489.071 25.9C488.561 25.955 487.436 26.707 486.571 27.571C485.393 28.75 484.997 28.813 484.986 27.821C484.979 27.095 484.695 25.463 484.355 24.194C483.739 21.893 483.755 21.889 493.361 22.119C498.654 22.245 503.32 22.013 503.73 21.603C504.14 21.193 505.606 21.168 506.988 21.546C508.37 21.925 511.188 22.216 513.25 22.193ZM849.8 22.2C851.438 23.838 851.309 25.944 849.528 26.628C847.64 27.352 842 24.881 842 23.329C842 21.22 847.958 20.358 849.8 22.2ZM402 24.118C402 24.668 401.601 24.871 401.113 24.57C400.626 24.269 399.662 24.702 398.972 25.534C397.913 26.81 398.013 26.949 399.609 26.429C401.031 25.964 401.158 26.055 400.122 26.794C399.364 27.334 399.06 28.389 399.446 29.138C399.832 29.887 399.455 29.6 398.608 28.5C397.761 27.4 396.585 25.938 395.995 25.25C395.187 24.309 395.411 24 396.902 24C397.991 24 399.165 23.543 399.51 22.984C400.23 21.818 402 22.624 402 24.118ZM479 23.864C479 25.324 477.993 25.866 474.36 26.364C466.916 27.384 461.782 27.154 462.227 25.82C462.701 24.397 470.065 22.311 475.25 22.131C478.289 22.025 479 22.353 479 23.864ZM603.731 23.131C604.353 23.753 607.547 24.3 610.829 24.346C616.006 24.418 616.578 24.609 615.148 25.789C613.664 27.014 613.716 27.103 615.675 26.687C617.219 26.36 617.698 26.623 617.325 27.595C616.973 28.512 616.255 28.682 615.15 28.112C614.243 27.643 610.35 27.481 606.5 27.752C602.65 28.022 598.6 28.175 597.5 28.092C596.4 28.009 592.62 27.987 589.1 28.044C585.58 28.1 580.43 27.834 577.655 27.453C573.056 26.82 572.777 26.636 574.496 25.379C575.741 24.469 579.207 24 584.691 24C589.564 24 593 23.586 593 23C593 21.621 602.335 21.735 603.731 23.131ZM636.399 23.402C636.104 24.172 634.093 24.972 631.931 25.178C628.691 25.487 628 25.241 628 23.776C628 22.34 628.854 22 632.469 22C635.89 22 636.811 22.328 636.399 23.402ZM826.176 23.589C823.866 25.207 821 24.899 821 23.031C821 22.464 822.675 22 824.723 22C828.409 22 828.423 22.015 826.176 23.589ZM930 23.5C930 24.433 929.056 25 927.5 25C925.072 25 924.307 24.026 925.667 22.667C926.925 21.409 930 22 930 23.5ZM412.393 25.582C413.236 27.78 413.151 29 412.153 29C411.117 29 407 25.511 407 24.633C407 23.252 411.825 24.101 412.393 25.582ZM570.341 24.675C571.286 25.619 565.931 28.985 563.473 28.993C562.357 28.997 560.557 28.391 559.473 27.646C558.388 26.901 556.15 25.812 554.5 25.225C551.956 24.32 552.881 24.146 560.583 24.079C565.579 24.036 569.97 24.304 570.341 24.675ZM722.362 25.5C722.015 26.404 720.505 27 718.56 27C716.358 27 715.333 26.523 715.333 25.5C715.333 24.43 716.422 24 719.135 24C722.104 24 722.811 24.329 722.362 25.5ZM695.771 27.813C695.992 28.476 695.247 29 694.083 29C692.006 29 691.383 27.95 692.688 26.646C693.614 25.719 695.284 26.351 695.771 27.813ZM665 28C666.09 28.704 665.27 28.969 662 28.969C658.73 28.969 657.91 28.704 659 28C659.825 27.467 661.175 27.031 662 27.031C662.825 27.031 664.175 27.467 665 28ZM368.934 31.844C367.512 32.334 365 31.237 365 30.125C365 29.601 366.088 29.698 367.467 30.344C368.824 30.98 369.484 31.655 368.934 31.844ZM358.565 31.598C362.966 33.686 362.941 35 358.5 35C356.575 35 355 34.55 355 34C355 33.45 354.523 33 353.941 33C353.359 33 353.09 33.338 353.344 33.75C353.597 34.162 352.161 34.611 350.153 34.746C347.828 34.902 346.985 34.68 347.835 34.134C348.859 33.477 348.701 33.155 347.159 32.752C345.669 32.362 345.298 32.614 345.726 33.729C346.183 34.919 345.804 35.075 343.901 34.481C341.689 33.789 340.053 32.301 340.015 30.945C340.007 30.639 343.404 30.295 347.565 30.179C352.854 30.031 356.164 30.459 358.565 31.598ZM355.559 32.468C356.626 33.276 357.95 33.936 358.5 33.936C359.05 33.936 358.626 33.276 357.559 32.468C356.491 31.661 355.168 31 354.618 31C354.068 31 354.491 31.661 355.559 32.468ZM1375 32.034C1375 32.698 1376.8 32.83 1380.03 32.402L1385.05 31.735L1384.81 34.925C1384.48 39.231 1383.46 39.853 1375.68 40.493C1369.44 41.006 1369 40.908 1369 39C1369 37.809 1367.99 36.497 1366.58 35.853C1364.69 34.992 1364.41 34.471 1365.33 33.478C1366.27 32.452 1366.66 32.477 1367.3 33.603C1367.74 34.371 1369.09 34.955 1370.3 34.9C1372.36 34.807 1372.34 34.749 1370 34C1367.6 33.232 1367.59 33.195 1369.75 33.1C1370.99 33.045 1372 32.55 1372 32C1372 31.45 1372.68 31 1373.5 31C1374.33 31 1375 31.465 1375 32.034ZM1396.3 38.801C1394.91 40.067 1393.5 40.83 1393.16 40.497C1392.83 40.164 1393.17 39.516 1393.91 39.057C1394.65 38.599 1394.93 37.693 1394.53 37.045C1394.12 36.381 1394.61 35.274 1395.65 34.508C1397.24 33.337 1397.59 33.38 1398.17 34.824C1398.61 35.93 1397.98 37.283 1396.3 38.801ZM1376.81 34.683C1377.53 34.972 1378.4 34.936 1378.73 34.604C1379.06 34.272 1378.47 34.036 1377.42 34.079C1376.25 34.127 1376.02 34.364 1376.81 34.683ZM1349 37.8C1349 39.34 1349.52 41.12 1350.16 41.755C1351.03 42.628 1350.6 42.72 1348.41 42.133C1345.5 41.357 1344.34 39.164 1345.38 36.442C1346.39 33.814 1349 34.793 1349 37.8ZM1460 38C1459.18 38.533 1458.05 38.969 1457.5 38.969C1456.95 38.969 1457.18 38.533 1458 38C1458.83 37.467 1459.95 37.031 1460.5 37.031C1461.05 37.031 1460.83 37.467 1460 38ZM1307.44 41.895C1307.74 42.388 1307.34 43.04 1306.55 43.344C1305.58 43.714 1305.29 43.416 1305.66 42.449C1306.3 40.769 1306.67 40.655 1307.44 41.895ZM1289.37 44.226C1291.4 47.436 1285.92 51.422 1282.18 49.46L1279.85 48.241L1283.18 45.125C1286.71 41.812 1287.75 41.661 1289.37 44.226ZM1410.63 47.467C1411.63 50.079 1410.62 51.175 1408.59 49.686C1407.55 48.925 1407.01 47.786 1407.41 47.152C1408.39 45.558 1409.95 45.711 1410.63 47.467ZM560.571 53.75C560.254 55.95 556 56.778 556 54.639C556 53.814 557.013 52.944 558.25 52.706C559.487 52.467 560.573 52.211 560.662 52.136C560.75 52.061 560.71 52.787 560.571 53.75ZM1498.68 52.612C1501.42 53.346 1502.49 55.942 1500.76 57.668C1499.68 58.751 1498.8 58.518 1495.72 56.33C1493.68 54.873 1492 53.302 1492 52.84C1492 51.874 1495.49 51.755 1498.68 52.612ZM532.495 57.008C532.158 57.554 531.459 58 530.941 58C529.853 58 529.665 54.669 530.695 53.639C531.634 52.7 533.268 55.758 532.495 57.008ZM1490 56.063C1490 57.78 1489.47 58.074 1486.83 57.813C1483.29 57.464 1481.9 55.426 1484.7 54.7C1488.69 53.665 1490 54.002 1490 56.063ZM1477.46 58.74C1480.02 61.504 1480.79 64 1479.07 64C1477.41 64 1471.09 59.535 1471.04 58.333C1471 57.271 1472.4 56.281 1474.21 56.079C1474.6 56.036 1476.06 57.233 1477.46 58.74ZM635 60C635 61.556 634.333 62 632 62C628.684 62 628.401 61.595 630.25 59.496C632.139 57.35 635 57.654 635 60ZM1528.03 60.584C1528.57 62.005 1528.74 63.609 1528.41 64.149C1527.54 65.548 1524 62.088 1524 59.845C1524 57.087 1526.91 57.62 1528.03 60.584ZM1613.5 60L1611.5 60.859L1613.5 60.945C1615.16 61.016 1615.25 61.194 1614 62C1612.74 62.817 1612.79 62.972 1614.36 62.985C1615.56 62.995 1616.02 62.497 1615.66 61.565C1615.36 60.775 1615.65 59.911 1616.31 59.644C1616.96 59.376 1617.05 59.154 1616.5 59.149C1615.95 59.144 1614.6 59.527 1613.5 60ZM562.926 61.862C563.643 63.201 563.522 64.253 562.493 65.612C561.707 66.65 561.049 68.277 561.032 69.227C561.014 70.177 559.873 71.692 558.495 72.595C555.462 74.582 553 73.141 553 69.378C553 66.955 554.383 66.193 555.5 68C555.84 68.55 556.766 69 557.559 69C558.563 69 559 67.838 559 65.167C559 59.83 560.957 58.182 562.926 61.862ZM1361.35 64.239C1361.09 64.658 1361.36 65 1361.94 65C1362.52 65 1363 65.675 1363 66.5C1363 67.325 1363.45 68 1364 68C1365.09 68 1365.39 72.278 1364.37 73.298C1364.02 73.645 1362.84 73.449 1361.74 72.862C1359.73 71.784 1359.52 71.916 1357.19 75.731C1356.78 76.408 1354.94 77.262 1353.11 77.629C1350.04 78.243 1349.86 78.144 1350.87 76.398C1353.19 72.381 1355.05 70.662 1357.23 70.502C1359.12 70.363 1359.52 69.729 1359.61 66.698C1359.66 64.697 1359.36 63.279 1358.93 63.547C1358.49 63.814 1357.81 63.506 1357.42 62.862C1356.96 62.131 1357.12 61.959 1357.85 62.405C1358.55 62.84 1359 62.436 1359 61.368C1359 59.786 1359.14 59.803 1360.41 61.548C1361.19 62.609 1361.61 63.82 1361.35 64.239ZM553.968 62.75C553.936 64.539 551.764 68 550.675 68C550.342 68 549.588 67.099 548.998 65.997C548.204 64.512 548.259 63.617 549.213 62.535C551.022 60.485 554.007 60.619 553.968 62.75ZM1373.8 64.028C1375.72 65.821 1375.83 65.806 1378.05 63.445C1380.32 61.028 1380.33 61.027 1381.76 63.066C1383.59 65.673 1382.63 69.686 1379.49 72.594C1378.19 73.802 1377.43 75.096 1377.8 75.47C1378.18 75.844 1376.69 76.003 1374.49 75.825C1370.77 75.522 1370.5 75.289 1370.44 72.361C1370.4 70.635 1369.58 68.011 1368.61 66.531C1365.31 61.492 1369.11 59.659 1373.8 64.028ZM1405 62.5C1405 63.333 1404.11 64 1403 64C1401.89 64 1401 63.333 1401 62.5C1401 61.667 1401.89 61 1403 61C1404.11 61 1405 61.667 1405 62.5ZM1469.56 65.531C1470.09 68.208 1469.9 68.5 1467.58 68.5C1464.63 68.5 1464.61 68.425 1466.12 64.073C1467.38 60.483 1468.66 61.027 1469.56 65.531ZM1488.97 64.149C1490.76 64.405 1491.69 65.388 1492.37 67.774C1493.16 70.544 1493.97 71.216 1497.65 72.142C1503.11 73.516 1503.33 75.064 1498 74.533C1495.01 74.236 1494 74.497 1494 75.568C1494 76.355 1493.57 77 1493.04 77C1491.96 77 1489.86 73.523 1490.19 72.291C1490.69 70.397 1488.76 67.214 1486.48 66.173C1484.1 65.088 1484 65.181 1484 68.521C1484 71.72 1483.76 72 1481 72C1478.8 72 1478.01 71.535 1478.03 70.25C1478.09 67.076 1484.75 60.988 1485.99 62.976C1486.27 63.428 1487.61 63.956 1488.97 64.149ZM599.755 64.75C600.348 66.549 597.486 66.291 595.92 64.404C594.764 63.01 594.897 62.852 596.97 63.154C598.275 63.344 599.529 64.063 599.755 64.75ZM1433.56 64.433C1434.96 65.464 1435.2 66.173 1434.42 66.965C1432.96 68.448 1430.31 67.31 1429.69 64.931C1429.09 62.631 1430.82 62.408 1433.56 64.433ZM1611.02 64.524C1611.72 65.362 1612.49 65.842 1612.74 65.591C1613.44 64.897 1612.03 63 1610.82 63C1610.16 63 1610.23 63.574 1611.02 64.524ZM1457.47 68.621C1458.19 73.448 1456.64 77.205 1455.48 73.417C1455.16 72.363 1454.31 70.334 1453.59 68.908C1452.46 66.68 1452.5 66.162 1453.89 65.217C1456.45 63.468 1456.73 63.736 1457.47 68.621ZM1499 65C1499 65.55 1498.8 66 1498.56 66C1498.32 66 1497.84 65.55 1497.5 65C1497.16 64.45 1497.36 64 1497.94 64C1498.52 64 1499 64.45 1499 65ZM1541.04 66.078C1541.53 66.991 1541.72 67.946 1541.47 68.201C1540.71 68.955 1544.42 68.474 1545.77 67.644C1547.93 66.306 1547.1 65.23 1543.58 64.819C1540.64 64.476 1540.28 64.655 1541.04 66.078ZM450.577 67.25C450.27 68.487 450.277 68.938 450.593 68.25C451.641 65.968 453 66.956 453 70C453 71.65 452.602 73 452.117 73C451.301 73 449.864 69.848 449.609 67.5C449.549 66.95 449.05 66.169 448.5 65.765C447.94 65.354 448.3 65.024 449.317 65.015C450.703 65.004 451.002 65.534 450.577 67.25ZM1360 66C1360 66.55 1360.48 67 1361.06 67C1361.64 67 1361.84 66.55 1361.5 66C1361.16 65.45 1360.68 65 1360.44 65C1360.2 65 1360 65.45 1360 66ZM1538.21 67.601C1537.5 68.37 1537.36 69 1537.9 69C1538.94 69 1540.44 67.098 1539.85 66.534C1539.66 66.351 1538.92 66.831 1538.21 67.601ZM678.362 68.5C678.045 69.325 676.934 70 675.893 70C674.852 70 674 69.325 674 68.5C674 67.572 674.941 67 676.469 67C678.252 67 678.777 67.416 678.362 68.5ZM645.418 69.607C646.288 69.941 647 71.014 647 71.993C647 72.971 647.669 75.06 648.488 76.636C650.413 80.342 648.407 81.307 645.876 77.892C644.901 76.576 643.415 74.723 642.574 73.773C641.733 72.823 641.308 71.36 641.63 70.523C642.267 68.861 643.008 68.682 645.418 69.607ZM1450.38 70.552C1450.72 71.442 1450.56 71.843 1449.99 71.493C1449.45 71.157 1449 70.459 1449 69.941C1449 68.503 1449.72 68.82 1450.38 70.552ZM42.803 70.68C43.78 71.071 43.655 71.556 42.303 72.617C40.701 73.875 40.803 73.903 43.219 72.87C46.081 71.646 46.064 69.945 43.191 70.079C42.067 70.131 41.937 70.333 42.803 70.68ZM428.901 73.061C426.963 74.259 426.489 73.32 428.071 71.415C429.035 70.252 429.545 70.134 429.835 71.006C430.06 71.68 429.639 72.605 428.901 73.061ZM1524.63 70.786C1524.37 71.218 1524.98 71.571 1526 71.571C1527.02 71.571 1527.64 71.218 1527.37 70.786C1527.1 70.354 1526.49 70 1526 70C1525.52 70 1524.9 70.354 1524.63 70.786ZM36 71.916C32.545 72.561 32.536 72.577 35.249 73.146C36.85 73.481 38.729 73.167 39.749 72.393C41.637 70.96 41.333 70.921 36 71.916ZM570.298 71.631C571.548 72.882 568.879 76 566.558 76C564.701 76 564.298 75.578 564.696 74.054C565.133 72.385 566.159 71.698 569.083 71.116C569.404 71.052 569.951 71.284 570.298 71.631ZM1336.81 73.265C1337.21 75.331 1334.32 76.724 1332.8 75.2C1331.28 73.676 1332.67 70.79 1334.74 71.188C1335.69 71.372 1336.63 72.307 1336.81 73.265ZM1395.15 72C1395.69 72 1395.99 73.463 1395.81 75.25C1395.64 77.037 1394.94 78.5 1394.25 78.5C1393.56 78.5 1392.97 78.171 1392.94 77.768C1392.9 77.366 1392.47 75.638 1391.98 73.928C1391.23 71.325 1391.34 70.916 1392.63 71.41C1393.47 71.734 1394.61 72 1395.15 72ZM532.558 73.907C532.249 74.405 532.785 74.609 533.749 74.359C534.712 74.109 536.337 74.519 537.361 75.27C539.126 76.565 539.133 76.725 537.49 78.368C535.243 80.614 532.859 80.102 531.336 77.047C530.082 74.531 530.378 73 532.118 73C532.668 73 532.866 73.408 532.558 73.907ZM4.24401 74.664C3.55301 74.943 3.242 75.582 3.553 76.085C3.864 76.588 3.64101 77 3.05901 77C2.47701 77 2.00001 76.523 2.00001 75.941C2.00001 75.359 1.543 75.165 0.983999 75.51C-1.318 76.933 1.50001 78.05 6.32401 77.627C11.006 77.217 11.299 77.308 9.51 78.617C7.612 80.005 7.63 80.044 10.019 79.686C11.384 79.482 13.04 78.246 13.7 76.941C15.035 74.301 14.362 72.602 12.969 75.092C12.34 76.215 11.144 76.52 8.79401 76.156C5.61901 75.664 5.59001 75.62 8.00001 74.923L10.5 74.199L8.00001 74.179C6.62501 74.167 4.93501 74.386 4.24401 74.664ZM18.75 75.662C19.438 75.94 20.563 75.94 21.25 75.662C21.938 75.385 21.375 75.158 20 75.158C18.625 75.158 18.063 75.385 18.75 75.662ZM1288.57 79.532C1287.37 81.359 1286.07 82 1283.54 82C1277.24 82 1278.44 78.997 1285.74 76.469C1290.07 74.971 1290.94 75.917 1288.57 79.532ZM1427.46 78.245C1428.43 79.629 1428.63 80.623 1427.98 80.839C1426.66 81.282 1422 78.277 1422 76.977C1422 75.109 1425.9 76.014 1427.46 78.245ZM1409.81 80.25C1410.05 81.51 1409.5 82.003 1407.82 82.011C1406.55 82.017 1403.81 82.301 1401.75 82.642C1398.48 83.182 1398 83.011 1398 81.298C1398 78.578 1398.17 78.5 1404.16 78.5C1408.42 78.5 1409.53 78.846 1409.81 80.25ZM1504.52 80.075C1505.36 82.7 1504.7 83.357 1502.08 82.524C1498.86 81.505 1499.61 78.492 1503.18 78.079C1503.56 78.036 1504.16 78.934 1504.52 80.075ZM597 80.585C597 82.118 595.448 84.016 594.143 84.079C593.105 84.129 592.961 84.344 593.75 84.662C594.438 84.94 595.032 85.917 595.07 86.833C595.126 88.163 595.314 88.096 596 86.5C596.473 85.4 596.891 85.114 596.93 85.865C596.986 86.956 597.494 86.906 599.465 85.615C602.663 83.52 608.862 83.476 609.655 85.543C610.543 87.859 609.499 88.354 603.569 88.43C600.597 88.469 597.828 88.838 597.416 89.25C596.057 90.61 595.071 90.038 593.485 86.971C591.872 83.851 592.292 81.444 594.239 82.648C594.923 83.07 595.122 82.761 594.765 81.831C594.423 80.939 594.759 80.333 595.595 80.333C596.368 80.333 597 80.447 597 80.585ZM1305.8 81.2C1306.46 81.86 1307 82.76 1307 83.2C1307 84.514 1303.33 84.105 1302.13 82.658C1300.13 80.252 1303.51 78.91 1305.8 81.2ZM558.377 83.066C561.618 81.331 564.436 82.072 564.819 84.759C565.215 87.53 562.556 88.682 553.673 89.593C549.426 90.028 546.568 89.839 545.044 89.023C542.792 87.818 542.816 87.77 547.021 84.986C550.59 82.623 551.659 82.343 553.647 83.249C555.406 84.051 556.625 84.003 558.377 83.066ZM628 83C627.175 83.533 626.05 83.969 625.5 83.969C624.95 83.969 625.175 83.533 626 83C626.825 82.467 627.95 82.031 628.5 82.031C629.05 82.031 628.825 82.467 628 83ZM403.5 84C403.84 84.55 403.641 85 403.059 85C402.477 85 402 84.55 402 84C402 83.45 402.198 83 402.441 83C402.684 83 403.16 83.45 403.5 84ZM439.762 85.047C444.664 86.515 444.945 87.156 441.496 89.002C439.259 90.199 438.743 90.107 436.647 88.138C434.679 86.289 433.865 86.101 431.585 86.968C428.474 88.15 425 86.839 425 84.481C425 82.73 433.059 83.039 439.762 85.047ZM631.616 86.718C631.304 87.03 630.341 86.698 629.477 85.981C628.238 84.952 628.177 84.509 629.188 83.884C630.503 83.071 632.699 85.634 631.616 86.718ZM525.453 85.161C528.669 86.626 528.731 88 525.582 88C522.13 88 520 87.005 520 85.393C520 83.696 522.047 83.609 525.453 85.161ZM677.728 85.682C678.196 87.089 674.518 89.259 672.42 88.813C671.15 88.543 671.17 88.181 672.568 86.195C674.227 83.838 677.022 83.561 677.728 85.682ZM1498 92.11C1499.27 93.026 1499.24 93.106 1497.78 92.638C1495.79 92 1494.36 93.578 1496.24 94.336C1496.94 94.614 1496.47 94.878 1495.22 94.921C1493.23 94.99 1493.07 94.735 1494 93C1495.22 90.729 1495.88 90.582 1498 92.11ZM1415.8 95.2C1417.6 97.004 1417.24 99 1415.12 99C1414.08 99 1412.49 97.875 1411.59 96.5C1410.01 94.081 1410.03 94 1412.28 94C1413.56 94 1415.14 94.54 1415.8 95.2ZM1406 96C1407.33 96.862 1407.33 96.969 1406 96.969C1405.18 96.969 1403.83 96.533 1403 96C1401.67 95.138 1401.67 95.031 1403 95.031C1403.83 95.031 1405.18 95.467 1406 96ZM1554 95.982C1554 97.102 1556.88 100 1557.99 100C1560.11 100 1562 98.639 1562 97.106C1562 95.838 1561.02 95.386 1558 95.265C1555.8 95.178 1554 95.5 1554 95.982ZM486.973 103.817C487.014 105.834 482.895 104.224 480.193 101.166C477.998 98.683 477.974 98.493 479.687 97.239C481.268 96.083 481.821 96.324 484.217 99.211C485.718 101.02 486.958 103.093 486.973 103.817ZM534.313 98.805C537.673 102.311 537.706 103.785 534.445 104.603C531.278 105.398 527 101.791 527 98.326C527 95.003 530.916 95.259 534.313 98.805ZM690.682 105.661C690.906 108.322 690.636 111.173 690.084 111.995C687.849 115.321 683.985 106.319 684.783 99.644L685.243 95.789L687.76 98.305C689.57 100.115 690.391 102.181 690.682 105.661ZM601.8 98.2C602.46 98.86 603 100.226 603 101.235C603 102.823 602.696 102.91 600.75 101.885C598.132 100.507 596.926 98.929 597.625 97.798C598.349 96.626 600.426 96.826 601.8 98.2ZM623.734 101.473C624.998 103.425 625.716 105.698 625.389 106.711C625.036 107.806 625.139 108.064 625.656 107.376C627.277 105.218 630.54 107.55 630.808 111.058L631.058 114.343L629.045 111.784C627.938 110.376 625.937 108.95 624.598 108.614C621.707 107.888 617.716 101.904 618.595 99.613C619.563 97.091 621.303 97.721 623.734 101.473ZM435.75 101.25C435.521 101.938 434.733 102.5 434 102.5C433.267 102.5 432.479 101.938 432.25 101.25C432.002 100.506 432.711 100 434 100C435.289 100 435.998 100.506 435.75 101.25ZM656.25 100.662C655.563 100.94 654.438 100.94 653.75 100.662C653.063 100.385 653.625 100.158 655 100.158C656.375 100.158 656.938 100.385 656.25 100.662ZM1466.05 102.086C1466.66 103.233 1467.01 104.267 1466.83 104.383C1462.55 107.123 1456.8 107.668 1455 105.504C1453.96 104.242 1454.45 103.699 1458.13 102.026C1463.67 99.513 1464.67 99.52 1466.05 102.086ZM1420 103.8C1420 106.317 1418.18 107.86 1415.92 107.268C1413.31 106.585 1413.5 104.137 1416.25 103.031C1419.54 101.71 1420 101.805 1420 103.8ZM662.729 103.604C662.397 103.936 661.534 103.972 660.813 103.683C660.015 103.364 660.252 103.127 661.417 103.079C662.471 103.036 663.061 103.272 662.729 103.604ZM1359 106.059C1359 107.127 1358.81 108 1358.58 108C1358.35 108 1357.45 108.273 1356.58 108.607C1354.68 109.337 1354.36 106.038 1356.16 104.24C1357.66 102.739 1359 103.596 1359 106.059ZM649.5 106C649.84 106.55 649.641 107 649.059 107C648.477 107 648 106.55 648 106C648 105.45 648.198 105 648.441 105C648.684 105 649.16 105.45 649.5 106ZM663.729 105.604C663.397 105.936 662.534 105.972 661.813 105.683C661.015 105.364 661.252 105.127 662.417 105.079C663.471 105.036 664.061 105.272 663.729 105.604ZM513.944 110.374C513.7 110.611 512.648 109.611 511.606 108.152L509.712 105.5L512.05 107.722C513.337 108.944 514.189 110.138 513.944 110.374ZM672.25 106.986C674.388 107.003 674.578 109.564 672.5 110.362C671.675 110.678 671 110.539 671 110.052C671 109.565 671.563 108.94 672.25 108.662C672.938 108.385 672.375 108.115 671 108.064C669.625 108.012 667.825 107.487 667 106.898C665.824 106.058 666.04 105.95 668 106.4C669.375 106.715 671.288 106.979 672.25 106.986ZM739 108.933C739 109.446 738.103 110.15 737.006 110.498C735.909 110.846 734.305 111.838 733.442 112.701C732.288 113.855 731.576 113.976 730.758 113.158C729.939 112.339 730.262 111.508 731.975 110.022C734.35 107.962 739 107.241 739 108.933ZM1489.26 130C1489.48 130.825 1490.53 131.605 1491.58 131.732C1492.93 131.896 1493.05 131.777 1492 131.332C1491.18 130.985 1490.13 130.205 1489.67 129.6C1489.14 128.893 1488.99 129.035 1489.26 130ZM901.5 145C903.7 146.063 905.275 147.004 905 147.091C904.725 147.178 900.112 147.402 894.75 147.588C887.384 147.844 885 147.618 885 146.663C885 142.632 894.595 141.665 901.5 145ZM871.86 146.569C870.812 147.616 868.995 148.018 866.395 147.776C862.607 147.424 862.569 147.383 865 146.271C866.375 145.641 868.834 145.098 870.464 145.063C873.157 145.006 873.285 145.144 871.86 146.569ZM859.25 147.706C858.013 147.944 855.987 147.944 854.75 147.706C853.513 147.467 854.525 147.272 857 147.272C859.475 147.272 860.487 147.467 859.25 147.706ZM185.75 161.716C184.238 161.945 181.762 161.945 180.25 161.716C178.738 161.487 179.975 161.3 183 161.3C186.025 161.3 187.262 161.487 185.75 161.716Z" fill="#F4E4B6"/>
</svg>
