<?xml version="1.0" standalone="no"?>
<!DOCTYPE svg PUBLIC "-//W3C//DTD SVG 20010904//EN"
 "http://www.w3.org/TR/2001/REC-SVG-20010904/DTD/svg10.dtd">
<svg version="1.0" xmlns="http://www.w3.org/2000/svg"
 width="1140.000000pt" height="1140.000000pt" viewBox="0 0 1140.000000 1140.000000"
 preserveAspectRatio="xMidYMid meet">
<metadata>
Created by potrace 1.14, written by Peter Selinger 2001-2017
</metadata>
<g transform="translate(0.000000,1140.000000) scale(0.100000,-0.100000)"
fill="#000000" stroke="none">
<path d="M5530 11268 c-68 -17 -122 -51 -181 -112 -30 -32 -113 -189 -115
-218 -1 -10 -3 -20 -4 -23 -1 -3 -4 -9 -5 -15 -1 -5 -3 -2175 -4 -4821 l-1
-4810 -1189 1188 c-654 653 -1198 1194 -1210 1201 -24 14 -44 24 -84 43 -37
17 -192 17 -232 -1 -16 -7 -35 -14 -42 -16 -23 -4 -139 -102 -143 -119 0 -3
-13 -31 -28 -62 -22 -49 -27 -71 -26 -138 1 -44 4 -87 6 -95 11 -34 20 -57 36
-89 20 -40 2974 -2997 3038 -3042 47 -32 81 -45 148 -55 49 -7 50 -7 56 -4 3
1 23 3 46 5 54 4 139 46 192 95 23 22 42 42 42 46 0 3 8 18 19 32 10 15 24 45
30 67 7 22 15 47 18 55 4 8 7 17 7 20 1 3 4 10 8 15 3 6 10 28 14 50 5 22 9
43 10 48 1 4 2 2161 3 4793 l1 4785 1167 -1167 c642 -641 1183 -1176 1203
-1189 62 -39 124 -54 203 -50 81 4 104 11 162 42 83 46 159 142 172 218 7 40
8 154 2 185 -18 87 -30 100 -1530 1600 -810 809 -1488 1482 -1509 1495 -74 47
-194 65 -280 43z"/>
</g>
</svg>
